<?xml version="1.0" encoding="UTF-8" standalone="no"?>
<svg
   xmlns:dc="http://purl.org/dc/elements/1.1/"
   xmlns:cc="http://creativecommons.org/ns#"
   xmlns:rdf="http://www.w3.org/1999/02/22-rdf-syntax-ns#"
   xmlns:svg="http://www.w3.org/2000/svg"
   xmlns="http://www.w3.org/2000/svg"
   xmlns:sodipodi="http://sodipodi.sourceforge.net/DTD/sodipodi-0.dtd"
   xmlns:inkscape="http://www.inkscape.org/namespaces/inkscape"
   id="svg2440"
   width="100"
   height="100"
   version="1"
   inkscape:version="0.48.2 r9819"
   sodipodi:docname="catlike-coding-logo.svg">
  <sodipodi:namedview
     pagecolor="#ffffff"
     bordercolor="#666666"
     borderopacity="1"
     objecttolerance="10"
     gridtolerance="10"
     guidetolerance="10"
     inkscape:pageopacity="0"
     inkscape:pageshadow="2"
     inkscape:window-width="1189"
     inkscape:window-height="856"
     id="namedview23"
     showgrid="false"
     inkscape:zoom="3.337544"
     inkscape:cx="25.264341"
     inkscape:cy="55.595788"
     inkscape:window-x="166"
     inkscape:window-y="0"
     inkscape:window-maximized="0"
     inkscape:current-layer="svg2440" />
  <metadata
     id="metadata2445">
    <rdf:RDF>
      <cc:Work
         rdf:about="">
        <dc:format>image/svg+xml</dc:format>
        <dc:type
           rdf:resource="http://purl.org/dc/dcmitype/StillImage" />
      </cc:Work>
    </rdf:RDF>
  </metadata>
  <defs
     id="defs2443">
    <filter
       id="filter3826">
      <feGaussianBlur
         stdDeviation="0.32"
         id="feGaussianBlur3828" />
    </filter>
    <filter
       id="filter3829"
       x="-0.14"
       width="1.29"
       y="-0.14"
       height="1.28">
      <feGaussianBlur
         stdDeviation="3.84"
         id="feGaussianBlur3831" />
    </filter>
  </defs>
  <g
     id="g3798"
     transform="matrix(1.4587119,-0.17619034,0.17619034,1.4587119,-31.774698,-14.232589)"
     style="stroke:#ffffff">
    <g
       transform="matrix(4.4799191,-1.7217661,1.7217661,4.4799191,-2.2331358,25.501676)"
       id="g3762"
       style="fill:#000000;stroke:#ffffff;stroke-width:0.41999999;stroke-miterlimit:4">
      <path
         d="M 5.67,1.06 C 6.75,1.41 8.04,4.17 7.35,5.51 6.65,6.85 4.78,6.17 4.4,5.13 4.14,4.42 4.69,1.96 5.67,1.06 z"
         id="path3764"
         style="fill:#000000;fill-rule:evenodd;stroke:#ffffff;stroke-width:0.41999999;stroke-miterlimit:4"
         inkscape:connector-curvature="0" />
      <path
         id="path3766"
         d="M 10.45,2.23 C 11.5,2.96 12.72,5.39 11.8,6.39 11.19,7.04 9.9,7.27 9.28,6.63 8.5,5.81 9.27,2.99 10.45,2.23 z"
         style="fill:#000000;fill-rule:evenodd;stroke:#ffffff;stroke-width:0.41999999;stroke-miterlimit:4"
         inkscape:connector-curvature="0" />
      <path
         id="path3768"
         d="m 13.67,6.13 c 1.48,1.08 1.82,3.27 1.14,4.34 -0.53,0.82 -2.49,0.31 -2.6,-0.69 -0.13,-1.13 0.59,-2.62 1.46,-3.65 z"
         style="fill:#000000;fill-rule:evenodd;stroke:#ffffff;stroke-width:0.41999999;stroke-miterlimit:4"
         inkscape:connector-curvature="0" />
      <path
         id="path3770"
         d="M 2.67,5.89 C 3.52,6.67 4.92,8.91 4.01,10.15 3.39,11 1.83,11.03 1.34,9.85 0.9,8.79 1.61,6.87 2.67,5.89 z"
         style="fill:#000000;fill-rule:evenodd;stroke:#ffffff;stroke-width:0.41999999;stroke-miterlimit:4"
         inkscape:connector-curvature="0" />
      <path
         d="m 6.48,8.65 c 0.91,0.09 1.01,0.53 1.75,0.63 0.8,0.1 1.16,-0.44 1.84,-0.46 1.14,-0.04 2.44,3.05 2.87,4.41 -0.65,1.42 -1.73,2.49 -3.16,0.78 -0.68,0.78 -1.75,1.38 -2.85,0.16 -1.2,1.38 -2.95,0.24 -3.15,-1.22 0.53,-1.34 1.79,-4.4 2.7,-4.3 z"
         id="path3772"
         style="fill:#000000;fill-rule:evenodd;stroke:#ffffff;stroke-width:0.41999999;stroke-miterlimit:4"
         inkscape:connector-curvature="0" />
    </g>
  </g>
</svg>
